<svg xmlns="http://www.w3.org/2000/svg" width="1180" height="780" viewBox="0 0 1180 780" role="img" aria-labelledby="title desc">
  <title id="title">NeoAg Sliding-window Skill Workflow Breakdown</title>
  <desc id="desc">End-to-end flow from environment bootstrap to VEP annotation, peptide extraction, predictor scoring, ranking, catalog refresh, and final reports.</desc>
  <defs>
    <style>
      .box { fill: #f8fafc; stroke: #334155; stroke-width: 1.5; rx: 10; }
      .decision { fill: #fff7ed; stroke: #c2410c; stroke-width: 1.5; }
      .stage { fill: #eef2ff; stroke: #4338ca; stroke-width: 1.5; rx: 10; }
      .output { fill: #ecfdf5; stroke: #047857; stroke-width: 1.5; rx: 10; }
      .refresh { fill: #fdf2f8; stroke: #be185d; stroke-width: 1.5; rx: 10; }
      .text { font-family: Arial, Helvetica, sans-serif; font-size: 14px; fill: #0f172a; }
      .small { font-family: Arial, Helvetica, sans-serif; font-size: 12px; fill: #334155; }
      .title { font-family: Arial, Helvetica, sans-serif; font-size: 22px; font-weight: 700; fill: #0f172a; }
      .arrow { stroke: #475569; stroke-width: 1.8; fill: none; marker-end: url(#arrowhead); }
      .label { font-family: Arial, Helvetica, sans-serif; font-size: 12px; fill: #475569; }
    </style>
    <marker id="arrowhead" markerWidth="10" markerHeight="7" refX="9" refY="3.5" orient="auto">
      <polygon points="0 0, 10 3.5, 0 7" fill="#475569" />
    </marker>
  </defs>

  <rect x="0" y="0" width="1180" height="780" fill="#ffffff" />
  <text x="40" y="42" class="title">NeoAg Sliding-window Skill Workflow Breakdown</text>
  <text x="40" y="68" class="small">Use run-full for one-command execution, or staged mode for debugging and partial reruns.</text>

  <rect x="40" y="105" width="190" height="62" class="box" />
  <text x="62" y="130" class="text">User request</text>
  <text x="62" y="151" class="small">Somatic SNV/InDel VCF</text>

  <polygon points="330,95 430,136 330,177 230,136" class="decision" />
  <text x="294" y="132" class="text">Environment</text>
  <text x="310" y="151" class="text">ready?</text>

  <rect x="510" y="105" width="200" height="62" class="stage" />
  <text x="535" y="130" class="text">0. Bootstrap</text>
  <text x="535" y="151" class="small">Install env and package</text>

  <rect x="790" y="105" width="220" height="62" class="stage" />
  <text x="815" y="130" class="text">1. Preflight</text>
  <text x="815" y="151" class="small">Check tools and paths</text>

  <polygon points="900,215 1015,260 900,305 785,260" class="decision" />
  <text x="846" y="257" class="text">VCF has VEP CSQ?</text>

  <rect x="510" y="230" width="200" height="62" class="stage" />
  <text x="535" y="255" class="text">2. VEP annotation</text>
  <text x="535" y="276" class="small">Create annotated VCF</text>

  <rect x="365" y="365" width="260" height="78" class="stage" />
  <text x="390" y="390" class="text">3. Short peptide generation</text>
  <text x="390" y="411" class="small">variant_peptides.tsv</text>
  <text x="390" y="429" class="small">raw_events.tsv / raw_peptides.tsv</text>

  <polygon points="755,352 880,405 755,458 630,405" class="decision" />
  <text x="699" y="401" class="text">Predictor outputs</text>
  <text x="732" y="420" class="text">exist?</text>

  <rect x="930" y="365" width="210" height="78" class="stage" />
  <text x="955" y="390" class="text">4. Tool scoring</text>
  <text x="955" y="411" class="small">NetMHCpan / MHCflurry</text>
  <text x="955" y="429" class="small">Optional immunogenicity</text>

  <rect x="530" y="535" width="250" height="78" class="stage" />
  <text x="555" y="560" class="text">5. run ranking</text>
  <text x="555" y="581" class="small">Evidence layers, ranked tables</text>
  <text x="555" y="599" class="small">Validation plan and reports</text>

  <rect x="835" y="535" width="270" height="78" class="refresh" />
  <text x="860" y="560" class="text">6. Refresh annotated catalog</text>
  <text x="860" y="581" class="small">Update variant_peptides.annotated.tsv</text>
  <text x="860" y="599" class="small">with tool score columns</text>

  <rect x="395" y="675" width="390" height="62" class="output" />
  <text x="420" y="700" class="text">Final deliverables</text>
  <text x="420" y="721" class="small">ranked_events, ranked_peptides, validation plan, reports, refreshed catalog</text>

  <path d="M230 136 L230 136 L230 136" class="arrow" />
  <path d="M230 136 L245 136" class="arrow" />
  <path d="M430 136 L510 136" class="arrow" />
  <text x="454" y="126" class="label">No</text>
  <path d="M710 136 L790 136" class="arrow" />
  <path d="M900 167 L900 215" class="arrow" />
  <path d="M900 167 L900 215" class="arrow" />
  <path d="M330 177 C330 235, 500 235, 510 252" class="arrow" />
  <text x="355" y="220" class="label">Yes, but check VCF</text>
  <path d="M785 260 L710 260" class="arrow" />
  <text x="738" y="248" class="label">No</text>
  <path d="M610 292 C610 330, 520 330, 500 365" class="arrow" />
  <path d="M900 305 C900 345, 640 335, 565 365" class="arrow" />
  <text x="914" y="332" class="label">Yes</text>
  <path d="M625 405 L630 405" class="arrow" />
  <path d="M880 405 L930 405" class="arrow" />
  <text x="898" y="394" class="label">No</text>
  <path d="M1035 443 C1035 500, 760 502, 705 535" class="arrow" />
  <path d="M755 458 C755 500, 690 500, 665 535" class="arrow" />
  <text x="735" y="493" class="label">Yes</text>
  <path d="M780 574 L835 574" class="arrow" />
  <path d="M970 613 C970 655, 750 658, 690 675" class="arrow" />
  <path d="M655 613 L655 675" class="arrow" />

  <rect x="40" y="545" width="390" height="120" fill="#f8fafc" stroke="#cbd5e1" rx="10" />
  <text x="62" y="570" class="text">Rerun rule</text>
  <text x="62" y="594" class="small">VEP failed: rerun VEP only.</text>
  <text x="62" y="614" class="small">Peptide extraction failed: rerun extraction only.</text>
  <text x="62" y="634" class="small">Predictor failed: rerun scoring only.</text>
  <text x="62" y="654" class="small">Catalog stale: rerun refresh script only.</text>
</svg>
